<svg width="24" height="24" viewBox="0 0 24 24" fill="none" xmlns="http://www.w3.org/2000/svg">
<g clip-path="url(#clip0_1_28)">
<path d="M18.9678 8.907C18.9678 7.245 17.6123 5.892 15.9472 5.892C14.2792 5.892 12.9267 7.245 12.9267 8.907C12.9267 10.572 14.2792 11.922 15.9472 11.922C17.6133 11.922 18.9678 10.572 18.9678 8.907ZM13.6851 8.902C13.6851 7.65 14.6999 6.636 15.9542 6.636C17.2055 6.636 18.2244 7.65 18.2244 8.902C18.2244 10.153 17.2055 11.167 15.9542 11.167C14.6989 11.167 13.6851 10.153 13.6851 8.902Z" fill="white"/>
<path fill-rule="evenodd" clip-rule="evenodd" d="M0 11.037C0 8 0 3 0 0C3 0 21.6333 0 24 0C24 3 24 21 24 24C21 24 3 24 0 24C0 21 0 15.5 0 15.5C0 15.5 1.25835 15.799 2.5 16.349C5.48647 17.672 8.5 18.5 11.7576 16.349C13.9977 14.698 15.841 13.438 15.841 13.438H15.9462C16.419 13.438 16.8752 13.3653 17.304 13.2306C17.9407 14.3269 18.1051 14.9456 18.2244 16.0529C18.2244 16.0529 18.7479 15.3835 18.75 15C18.75 15 19.0517 15.2004 19.5 15.5C18.995 14.4662 18.6437 13.9183 17.8477 13.0203C18.2578 12.8303 18.6349 12.5809 18.9678 12.2831C19.8945 11.4541 20.4785 10.2506 20.4785 8.913C20.4785 6.417 18.4448 4.386 15.9462 4.386C13.4456 4.386 11.4139 6.474 11.4139 8.969C11.4139 8.969 10.5 10.5 9.5 12C7.59259 14.3843 5.22242 13.7169 3.5 13C1.77758 12.2831 0 11.037 0 11.037Z" fill="white"/>
<path d="M18.5 8.902C18.5 9.45428 18.0523 9.902 17.5 9.902C16.9477 9.902 16.5 9.45428 16.5 8.902C16.5 8.34971 16.9477 7.902 17.5 7.902C18.0523 7.902 18.5 8.34971 18.5 8.902Z" fill="white"/>
</g>
<defs>
<clipPath id="clip0_1_28">
<rect width="24" height="24" rx="12" fill="white"/>
</clipPath>
</defs>
</svg>
